<?xml version="1.0" encoding="utf-8"?>
<!-- Generator: Adobe Illustrator 25.0.0, SVG Export Plug-In . SVG Version: 6.00 Build 0)  -->
<svg version="1.1" id="Calque_1" xmlns="http://www.w3.org/2000/svg" xmlns:xlink="http://www.w3.org/1999/xlink" x="0px" y="0px"
	 viewBox="0 0 1032 241" style="enable-background:new 0 0 1032 241;" xml:space="preserve">
<style type="text/css">
	.st0{fill-rule:evenodd;clip-rule:evenodd;fill:#FFFFFF;}
	.st1{fill:#FFFFFF;}
	.st2{font-family:'BigJohnPRO-Regular';}
	.st3{font-size:126.6px;}
	.st4{letter-spacing:25;}
	.st5{letter-spacing:21;}
</style>
<path class="st0" d="M693.9,141.5c3.5,0.7,3.9,4.2,7.1,4.2c0.7-0.4,1.7,0.2,1.7-1.9c-0.1-5.3-6.7-6.8-7.7-7.2
	c-0.6,0.3-2,0.9-2.2,1.6C693.5,138.2,693.8,140.8,693.9,141.5z"/>
<text transform="matrix(1 0 0 1 60.19 192.5202)" class="st1 st2 st3 st4">SPL</text>
<text transform="matrix(1 0 0 1 376.06 192.5202)" class="st1 st2 st3 st5">A</text>
<text transform="matrix(1 0 0 1 499.63 192.5202)" class="st1 st2 st3 st4">TTER</text>
<path class="st0" d="M131.6,59c0,1-0.9,1.1-0.9,2.9c0.2,2.1,3.1,3.3,3.1,3.3c2.6,0,3.8-2.8,4-2.8c0-2.2-0.7-4-3.1-4.3
	c0.2-0.6,0.5-1.1,0.9-1.6c-0.5-2.4-0.2-2.1-2-4.6c-2.2,0-4.8,0.4-4.8,4.1C128.8,57.6,131.6,57.9,131.6,59z"/>
<path class="st0" d="M144.4,165.8c0.3,0.6-0.2,1.1,1.1,1.1c0.3,0,0.5,0,0.6-0.8c0-0.2-0.1-0.2-0.2-0.6
	C145.4,165.5,144.9,165.6,144.4,165.8z"/>
<path class="st0" d="M150.3,17.4c0.5,0,1-0.2,1.4-0.5c-0.3-0.8-0.3-1.6-1.9-1.6c0,0-1.3,0.2-1.3,0.8
	C148.5,16.9,149.3,17.4,150.3,17.4z"/>
<path class="st0" d="M146.4,162.1h0.3c-0.5,0-1.8,0-1.8,1.1c0,0.5,0.8,0.8,1,0.8c1.4,0,8.1-1.5,8.8-4c-0.8-0.2-1.6-0.3-2.4-0.3
	C151.8,160.6,146.4,161.9,146.4,162.1z"/>
<path class="st0" d="M160.6,63.7c0.1,5.4,4.3,10.2,11,10.1c3.2,0.1,6.2-1.4,8-4.1c0.5,0.1,1,0.2,1.5,0.2c0.3,0,1.4,0.1,1.4-0.3
	c-0.7-0.3-1.6-0.6-2.4-0.9c1.1-2.2,1.6-4.6,1.5-7c-0.1-5.4-6.1-10.1-10.4-10.1C165.3,51.6,160.6,56.5,160.6,63.7z"/>
<path class="st0" d="M182.9,73.5c0.2,0,0.5,0,0.5-0.2c0,0-0.2-0.2-1.2-0.2C182.2,73.5,182.5,73.5,182.9,73.5z"/>
<path class="st0" d="M157.6,51.6c0.2-0.1,0.5-0.2,0.8-0.2c0.5,0,0.8,0.1,1.1,0.1c2.6,0,3.8-1.8,4.4-3.8c-0.3,0-0.5-0.2-0.5-0.5
	c0.1-0.6,0.2-1.1,0.5-1.6c-0.8-1-2.3-2.7-4-2.7s-4.6,0.9-4.6,3.7C155.4,50.5,157.1,49.5,157.6,51.6z"/>
<path class="st0" d="M181.5,73.1c0.5,0,0.5,0,0.5-0.2s-1.9-0.9-2.1-0.9C179.9,72.9,180.4,73.1,181.5,73.1z"/>
<path class="st0" d="M369.2,180.1c0-2.6,0.4-5.6-2.4-6.2c-0.2,0.2-0.2,0.9-0.2,1.4C366.6,177.4,367.4,180.2,369.2,180.1z"/>
<path class="st0" d="M554.7,68.6c-3.1-1.9-4.5,2.9-3.6,4.7C553.4,74,553.9,71,554.7,68.6z"/>
<path class="st0" d="M496.9,72.7c-1.5,7.4-8.4,4-11,9.1C488.8,84.4,502.2,77.7,496.9,72.7z"/>
<path class="st0" d="M488.1,120c0,0.3,0.3,0.6,0.9,0.6c0.4,0,0.8-0.1,1.2-0.3c0.6,0,0.6-0.6,0.6-0.9c-0.2-0.8-1-1.4-1.8-1.5
	C488.6,118.5,488.3,119.2,488.1,120z"/>
<path class="st0" d="M591.9,118c0.3,0.3,0.6,0.6,0.9,0.6c2.1,0,4.2-5.5,4.1-7c-2.4,0.3-6,3.1-5.9,5.8C591,117.7,591.3,118,591.9,118
	z"/>
<path class="st0" d="M670.7,194.9c1,0,0.8-0.2,0.9-1.3c-0.2-0.2-0.2,0-0.3-0.2c-0.5,0-1,0-1.4,0.2
	C669.8,194.3,669.8,194.9,670.7,194.9z"/>
<path class="st0" d="M612.2,123.8c-6.4-3.7-9,6.7-7.5,10.3C608.3,132.9,610.2,128.4,612.2,123.8z"/>
<path class="st0" d="M426.1,178.1c0.7,0.1,1.3-0.4,1.4-1.1c0-0.1,0-0.2,0-0.3c0-0.5,0-0.9-1.4-0.9c-0.9,0-1.4,0.5-1.4,1
	C424.7,177.5,425.3,178.1,426.1,178.1z"/>
<path class="st0" d="M593.6,142.1c-0.7-1.8-1.9-1.6-3.7-1.8C590.6,141.6,592.1,142.3,593.6,142.1z"/>
<path class="st0" d="M354.4,154c-2.2-1.5-2.4,1.1-4.2,0.6c-0.6,1.5,0.5,2.2-0.3,3.9C354.1,160.3,356.2,156.4,354.4,154z"/>
<path class="st0" d="M346.6,153c0.7-1.2,2.5-3.3,2.5-4.5c-1.4,0-5.5,4-5.5,6.4h1.6C345.2,153.8,345.6,153.8,346.6,153z"/>
<path class="st0" d="M343.5,187c1.4-0.3,2.1-0.3,2.1-1.2c0-3.5-1.7-3.5-4-5.8c-2.1,0-2.3,0.3-2.3,2.4c0.3,1.2,0.9,2.3,1.7,3.2
	C341.7,186.3,343.5,186.1,343.5,187z"/>
<path class="st0" d="M367.9,184.5c0.6,1.8,0.7,3.6,2.5,3.6c0.3,0,0.6-0.3,0.9-0.3c0.6-0.3,0.6-0.6,0.6-1.2c0-0.3,0-0.6-0.1-1
	c0.5,0.3,1,0.5,1.5,0.6c0-0.2-0.2-0.2-0.3-0.5c0-0.5,0.7,0.5,0.7-0.9c0-2.1-1-5.1-4-5c0,0.5-0.2,0.9-0.2,1.4c0,0.9,0.2,1.7,0.6,2.5
	C369.4,183.9,368.7,184.3,367.9,184.5z"/>
<path class="st0" d="M146,112.1c-1.9,0-2.8,0-3,1.7C144.2,113.7,146.1,113,146,112.1z"/>
<path class="st0" d="M357.9,168.7c0,1.4,2.6,3.5,2.4,3.5c0.2,0,0.5-0.5,1.1-0.5c-0.5-0.9-0.3-1.6-0.3-3c0-1.6-1.7-6.9-4.7-7.6
	c-0.2,0.2-0.7,0.5-0.9,0.9C355.5,162,356.1,167.8,357.9,168.7z"/>
<path class="st0" d="M366,166.7c0-0.7,0.2-0.7,0.2-1.9c-0.5,0-0.7-0.5-1.6-0.4C364.6,166,364.4,166.3,366,166.7z"/>
<path class="st0" d="M364.7,174.4c-0.2-0.7,0-0.5-0.5-0.9c0,0.2-0.2,0.5-0.2,0.7S364.3,174.4,364.7,174.4z"/>
<path class="st0" d="M913.8,96.2c0,2.6,2.8,3.5,4.2,3.4c3.5,0,6.7-0.6,6.7-4c-1.6-0.4-3-1.4-4.4-1.8c-0.4-0.2-0.8-0.2-1.2-0.2
	C917.2,93.6,913.8,94.8,913.8,96.2z"/>
<path class="st0" d="M929.3,117.6c0-1.2-0.1-2.4-0.3-3.6l-4.8,0.1c-0.6,0.9-1.8,1.5-1.8,2.7c0,0.6,3.3,1.8,3.3,1.8
	c1.1-0.3,2.2-0.4,3.3-0.3l-0.3-0.3C928.7,117.6,929,117.6,929.3,117.6z"/>
<path class="st0" d="M200.6,98.2c-0.6-0.3-1.3-0.5-1.9-0.6c-3.5-0.5-6.5,0.5-9.9,0.2c-2.9-0.2-5.6-0.7-8.4-0.7
	c-0.4-0.2-0.9-0.4-1.3-0.6c-1,0.5-2.2,0.3-3.1-0.4c-7.8,0.3-16.3-1.5-24.4-2.1c-1.5,0.9-3.5,0.5-4.4,3.4c1,0.6,0.9,1.5,1.7,2.2
	c2.8,0.5,5.6,1.3,8.2,1.2c3.7-2.1,8.7-0.5,13.4,0.1c4.7-0.3,10.4-0.6,15.5,1.9c1.4-0.8,2.7,0.4,4.3,0.7c2.8,0.5,5.7-0.5,8.4-0.4
	c0.1,0,0.2,0,0.4,0C199.5,101.5,200.1,99.9,200.6,98.2z M202.2,91.6c-0.1,0.1-0.2,0.2-0.2,0.3c0,0.2,0,0.5,0,0.7
	C202.1,92.2,202.1,91.9,202.2,91.6L202.2,91.6z"/>
<path class="st0" d="M930.6,121.5c-0.3,0-0.6,0.3-0.9,0.3s-0.6-0.3-0.6-0.9c-2.1,0.3-2.7,0.6-2.7,1.2c0.1,0.9,0.5,1.7,0.9,2.4
	C930,123.9,930.6,124.5,930.6,121.5z"/>
<path class="st0" d="M946.7,107.4c0,1.5,0.4,4.5,1.9,4.5c0.9,0.1,1.7-0.6,1.8-1.5C950.3,107.4,948.2,108,946.7,107.4z"/>
<path class="st0" d="M896.5,127.4c0,1.9-1.9-0.9-1.8,3.7c0.9,0,1.4,0.4,2.3,0.4c1.8,0,3.2-1.4,4.2-1.4
	C899.8,128.2,899.3,127.3,896.5,127.4z"/>
<path class="st0" d="M166.4,88.1C166.4,88.1,166.4,88.1,166.4,88.1c-0.1-0.1-0.1,0-0.2,0H166.4z"/>
<path class="st0" d="M938.3,158.6c-0.3,0.5-0.6,0.6-0.6,0.8s0.3,0.1,1,0.1C938.6,159.2,938.5,158.9,938.3,158.6z"/>
<path class="st0" d="M132.7,94.9L132.7,94.9h-0.2H132.7z"/>
<path class="st0" d="M938,218.2c-6,4.6,4.5,13.5,6.5,4.2C943.6,220.4,941.6,218.9,938,218.2z"/>
<path class="st0" d="M158.7,122.6c-0.7,0.7-0.9,0.9-1.9,1c0,0.5,0.2,0.5,0.5,0.5c0.9-0.2,1.8-0.6,2.5-1.2
	C159.9,122.6,159.6,122.6,158.7,122.6z"/>
<path class="st0" d="M958.1,110.9c0,1.2-1.5,0.6-1.5,1.8c0,0.9,0.3,1.8,2.1,1.8s2.7,0,2.7-2.1c0-0.3-0.1-0.7-0.3-0.9
	C960.2,110.9,959.9,110.9,958.1,110.9z"/>
<path class="st0" d="M191.5,69.7c-2-1.5-4.4-2.8-5.3,1.1C188.6,71.8,191,72.6,191.5,69.7z"/>
<path class="st0" d="M958.5,70.8c1.5,4.3,11.4,3.1,13.3-1.4C965.3,65.6,962.9,70.3,958.5,70.8z"/>
<path class="st0" d="M202.8,156.2c0-0.2-0.2-0.2-0.9-0.2c0.3,0.5,0,0.5,0.5,0.7C202.4,156.4,202.8,156.2,202.8,156.2z"/>
<path class="st0" d="M201.4,158.5c-0.2-0.7,0-0.5-0.5-0.9c0,0.2-0.1,0.3-0.2,0.5C200.8,158.8,200.8,158.5,201.4,158.5z"/>
<path class="st0" d="M203.3,154.1c0,0.2-0.2,0.5-0.2,0.7s0.2,0.2,0.7,0.2C203.5,154.3,203.7,154.5,203.3,154.1z"/>
<path class="st0" d="M175.5,109.4c-1.1,0.5-1.4,0.5-1.4,1.9C175.5,110.8,175.5,110.8,175.5,109.4z"/>
<path class="st0" d="M205.1,151.7h-0.5c-0.3,0.6-0.6,1.2-0.7,1.9c0,0.2,0,0.2,0.2,0.2C204.6,153.8,205.1,152.4,205.1,151.7z"/>
<path class="st0" d="M959.2,172c0,0.2,0,0.3-0.2,0.3s-0.3-0.2-0.6-0.1c-0.6,0-0.6,0.6-1.3,1c0.2,0.7,0.9,1.2,1.6,1.3
	c0.7-0.2,1.3-0.6,1.6-1.3C960.3,172.6,959.8,172.3,959.2,172z"/>
<path class="st0" d="M173.5,166.4c-0.5,0-0.6,0.2-0.8,0.8c0,0.3,0.2,0.2,0.2,0.6c1,0,1.4-0.2,1.4-0.6S174.3,166.4,173.5,166.4z"/>
<path class="st0" d="M154.4,93.2c0,1.9,0.3,1.9,2.1,1.8C156.5,93.1,156,93.1,154.4,93.2z"/>
<path class="st0" d="M186.9,163.1c-0.2,0.9-0.2,1.6-0.4,2.3h0.9c0-0.5,0.2-1,0.4-1.4C187.1,164,187.4,163.6,186.9,163.1z"/>
<path class="st0" d="M919.9,177.3c-1.2,0.4-2.4,0.7-3.6,1c0.7,3.6,2.8,4.5,5.8,4.4c1.8,0,2.7-0.6,2.7-1.9
	C924.7,178.4,922,177.3,919.9,177.3z"/>
<path class="st0" d="M925,166.3l-0.9,2.6c1.1,0.2,1.5,0.7,1.5,1.5C930,170.8,929.3,165.3,925,166.3z"/>
<path class="st0" d="M886.6,326.6c-2.1,0.2-4.2,0.3-6.3,0.6c0.8,1.2,1.8,2.2,2.9,3.6C886.3,329.9,886.7,328.3,886.6,326.6z
	 M747.5,198.9c-0.5-1.4-1.2-2.7-2.3-3.7l0.2-0.1c-0.1-3.4-2.5-6.2-4.6-9c-0.2-0.7-0.4-1.4-0.5-2.2c-0.8,0.2-0.9-1-1.8-1.6
	c-0.1-0.7-0.2-1.3-0.2-2c-1.8,3.1-3.5,6.3-5.1,9.5c1.8,0.4,3.4,0.5,3.6,0.5l0,0c0.4,1.7,1,3.3,2,4.7l-0.4,0.1
	c-0.3,0.1-0.1,0.2-0.1,0.4c0,0-1.5,0.6-1.9,0.8c1.2,3.8-1.9,3.4-1,6.2c1.5,5,6.1,2.7,7.6,4.4c1.7-0.8,3.1-2,4.2-3.6
	C748,201.9,748.1,200.3,747.5,198.9z M931.1,224.6c-2-6.6-4.4-9-6.5-10.6c-2-1.5-3.7-2.5-4.6-5.6c-3,0.9-9.2-10.8-10.8-10.3
	c-5.1-8.4-10-6.2-11-8.4c-7.8-0.5-7-3.9-11.5-5.4l0,0c-1.1,0.9-2.3,1.6-3.5,2.3c5.6,6.8,12.2,6.5,17.9,17.2
	c4.5,8.6,8.6,10.2,8.9,11.2c0.8,2.7,3.6,3.6,5,5.3c0.3,0.3,0.5,0.7,0.6,1.2c0.6,2,0.5,4.1,1.1,6.1c2.3,3.9,7,5,11.7,3.5
	c1.3-0.2,2.3-1.2,2.5-2.5C931,226.7,931.7,226.5,931.1,224.6z"/>
<path class="st0" d="M653.6,92.3c0.7-2.1,4.8-2.8,4.5-5.3c-3.2,0.5-4.4,6.8-8,4.7c-0.7,0.4-0.7,0.7-1.8,0.5c-4.2,3-7.7,6.2-9.5,9.2
	c1.7-0.4,3.3-1.3,4.7-2.4c1.2,1.4,3.1,1,4.7,1.3c-1.1,1.4-4.6,1.4-4.4,3.7c3-0.4,6.4-1.6,9.7-2.8c0.2,1-1.3,0.9-1.5,2
	c1.2,1.3,2.8-0.3,4.1-0.5c4.6,1.3,9.2-0.4,13.9-0.6c4.6,2.2,8.8-3.5,13.5-4.1c0.9-1.1,2.2-1.7,3.6-1.6c-0.6,1.2-2.4,1.2-2.9,2.6
	c9.9-5.6,20.1-2.7,29.8-7c3.2-0.4,7.9,1,9.7-2.8c-0.1-1-0.7-1.1-1.1-2.1c-3.3-0.8-6.7,1.8-10,2.3c-3.5-0.6-7.1,1.7-10.7,0.2
	c0.5-1.6,5.1-1.6,4.9-3.9c-4.1-0.1-9.9,7.7-14.4,6.8c-3.9,0.6-14.8,2.2-17.4-0.4C668.4,92.1,659.7,95.8,653.6,92.3z M671.5,101.1
	c2.8-1.9,6-3.2,9.4-3.5C678.6,98.8,674.1,101.7,671.5,101.1z M654.3,96.9c-0.9,0.5-2.4,0.8-2,1.8c0.7,0.1,1.5,0.1,2,0.6
	c-3.1,1.5-6.9-0.4-9.4-0.8C648.1,96.6,651.2,95.4,654.3,96.9L654.3,96.9z M662.8,109.5c0.6,0,1.1-0.1,1.7-0.2l0.2-0.7
	c0.7,0.3,0.2-0.6,0.2-0.8c-0.7,0-1,0.4-1.5,0.9C663,108.8,663,109.2,662.8,109.5L662.8,109.5z"/>
</svg>
