<svg id="Calque_1" data-name="Calque 1" xmlns="http://www.w3.org/2000/svg" viewBox="0 0 1032 841.89"><defs><style>.cls-1,.cls-2{fill:#fff;}.cls-1{fill-rule:evenodd;}.cls-2{font-size:126.6px;font-family:BigJohnPRO-Regular, Big John PRO;letter-spacing:0.2em;}.cls-3{letter-spacing:0.17em;}</style></defs><path class="cls-1" d="M693.94,389.43c3.53.7,3.94,4.21,7.1,4.17.74-.38,1.67.17,1.65-1.87-.07-5.26-6.67-6.78-7.69-7.19-.64.26-2,.87-2.22,1.57C693.53,386.1,693.75,388.69,693.94,389.43Z"/><text class="cls-2" transform="translate(60.19 440.41)">SPL<tspan class="cls-3" x="315.87" y="0">A</tspan><tspan x="439.44" y="0">TTER</tspan></text><path class="cls-1" d="M131.56,306.89c0,1-.94,1.14-.92,2.9.18,2.09,3.09,3.33,3.09,3.33,2.57,0,3.82-2.78,4-2.78,0-2.24-.7-4-3.11-4.29a4.87,4.87,0,0,1,.94-1.62c-.51-2.39-.18-2.07-2-4.61-2.24,0-4.81.37-4.76,4.06C128.82,305.49,131.55,305.77,131.56,306.89Z"/><path class="cls-1" d="M144.35,413.7c.32.64-.16,1.13,1.13,1.12.32,0,.49,0,.63-.81,0-.17-.15-.16-.16-.64A4.87,4.87,0,0,0,144.35,413.7Z"/><path class="cls-1" d="M150.27,265.27a2,2,0,0,0,1.43-.5c-.33-.8-.34-1.6-1.94-1.58,0,0-1.27.17-1.27.82C148.51,264.81,149.31,265.28,150.27,265.27Z"/><path class="cls-1" d="M146.38,410h.32c-.48,0-1.76,0-1.75,1.15,0,.48.81.79,1,.78,1.44,0,8.15-1.55,8.77-4a6.5,6.5,0,0,0-2.42-.28C151.81,408.48,146.38,409.83,146.38,410Z"/><path class="cls-1" d="M160.65,311.59c.07,5.42,4.34,10.18,11,10.1a9.11,9.11,0,0,0,8-4.12,6.62,6.62,0,0,0,1.49.23c.31,0,1.45.14,1.44-.34-.71-.26-1.58-.62-2.38-.92a15.36,15.36,0,0,0,1.52-7c-.07-5.41-6.15-10.15-10.37-10.09C165.31,299.5,160.56,304.37,160.65,311.59Z"/><path class="cls-1" d="M182.93,321.4c.24,0,.46,0,.46-.23,0,0-.23-.23-1.17-.22C182.23,321.41,182.46,321.41,182.93,321.4Z"/><path class="cls-1" d="M157.62,299.5a1.74,1.74,0,0,1,.79-.17c.48,0,.8.15,1.13.15,2.56,0,3.82-1.82,4.44-3.76a.51.51,0,0,1-.49-.47,6.36,6.36,0,0,1,.46-1.61c-.82-.95-2.28-2.7-4-2.67s-4.64.86-4.6,3.74C155.36,298.41,157.1,297.41,157.62,299.5Z"/><path class="cls-1" d="M181.53,321c.47,0,.47,0,.46-.24s-1.87-.9-2.1-.9C179.9,320.75,180.37,321,181.53,321Z"/><path class="cls-1" d="M369.22,428c0-2.56.39-5.58-2.39-6.24-.24.23-.23.93-.23,1.4C366.63,425.29,367.37,428.06,369.22,428Z"/><path class="cls-1" d="M554.7,316.49c-3.1-1.9-4.5,2.9-3.59,4.72C553.41,321.88,553.88,318.84,554.7,316.49Z"/><path class="cls-1" d="M496.89,320.59c-1.53,7.4-8.4,4-11,9.12C488.84,332.26,502.21,325.54,496.89,320.59Z"/><path class="cls-1" d="M488.12,367.87c0,.3.3.59.9.58a2.19,2.19,0,0,0,1.2-.31c.61,0,.6-.6.6-.91a2,2,0,0,0-1.84-1.48A6.53,6.53,0,0,0,488.12,367.87Z"/><path class="cls-1" d="M591.93,365.91c.3.31.6.6.9.6,2.11,0,4.15-5.48,4.13-7-2.4.33-6,3.09-5.94,5.8C591,365.63,591.33,365.92,591.93,365.91Z"/><path class="cls-1" d="M670.66,442.77c1,0,.79-.17.94-1.29-.17-.16-.17,0-.33-.16a4.39,4.39,0,0,0-1.43.18C669.85,442.14,669.85,442.78,670.66,442.77Z"/><path class="cls-1" d="M612.15,371.65c-6.37-3.67-9,6.69-7.45,10.33C608.29,380.79,610.24,376.24,612.15,371.65Z"/><path class="cls-1" d="M426.06,426a1.24,1.24,0,0,0,1.38-1.41c0-.47,0-.93-1.41-.92-.92,0-1.38.49-1.37.95A1.48,1.48,0,0,0,426.06,426Z"/><path class="cls-1" d="M593.56,390c-.72-1.84-1.87-1.6-3.73-1.8A4,4,0,0,0,593.56,390Z"/><path class="cls-1" d="M354.41,401.89c-2.21-1.47-2.39,1.15-4.16.57-.65,1.55.45,2.24-.32,3.85C354.1,408.19,356.23,404.32,354.41,401.89Z"/><path class="cls-1" d="M346.57,400.93c.69-1.18,2.52-3.29,2.5-4.45-1.38,0-5.52,4-5.49,6.35l1.63,0C345.19,401.65,345.65,401.64,346.57,400.93Z"/><path class="cls-1" d="M343.53,434.87c1.39-.25,2.09-.26,2.08-1.18-.05-3.49-1.67-3.47-4-5.76-2.08,0-2.31.27-2.28,2.36a8.52,8.52,0,0,0,1.67,3.23C341.66,434.2,343.52,433.94,343.53,434.87Z"/><path class="cls-1" d="M367.88,432.34c.63,1.81.66,3.61,2.46,3.59.3,0,.6-.31.9-.32.59-.3.59-.6.58-1.21,0-.28-.05-.62-.09-1a3.94,3.94,0,0,0,1.52.6c0-.23-.24-.22-.25-.46,0-.46.71.46.7-.94,0-2.08-1-5.09-4-5.05,0,.46-.22.93-.22,1.39a6.09,6.09,0,0,0,.57,2.46A6.89,6.89,0,0,1,367.88,432.34Z"/><path class="cls-1" d="M146,360c-1.86,0-2.79,0-3,1.67C144.21,361.62,146.05,360.9,146,360Z"/><path class="cls-1" d="M357.93,416.57c0,1.4,2.6,3.45,2.37,3.45.23,0,.45-.46,1.15-.47-.48-.92-.26-1.62-.27-3,0-1.63-1.72-6.94-4.74-7.6-.24.23-.7.47-.92.94C355.52,409.87,356.06,415.67,357.93,416.57Z"/><path class="cls-1" d="M366,414.61c0-.7.22-.7.21-1.86-.47,0-.7-.45-1.63-.44C364.63,413.93,364.4,414.17,366,414.61Z"/><path class="cls-1" d="M364.74,422.29c-.24-.69,0-.46-.48-.92,0,.23-.23.46-.23.7S364.27,422.3,364.74,422.29Z"/><path class="cls-1" d="M913.77,344.08c0,2.56,2.83,3.45,4.23,3.43,3.48,0,6.72-.56,6.68-4-1.63-.44-3-1.35-4.43-1.8a2.56,2.56,0,0,0-1.17-.22C917.22,341.48,913.75,342.69,913.77,344.08Z"/><path class="cls-1" d="M929.32,365.46a14.68,14.68,0,0,0-.34-3.61l-4.82.06c-.59.92-1.78,1.53-1.77,2.73,0,.61,3.34,1.77,3.34,1.77a12,12,0,0,1,3.31-.34l-.31-.3C928.72,365.47,929,365.46,929.32,365.46Z"/><path class="cls-1" d="M200.55,346.12a10.1,10.1,0,0,0-1.91-.61c-3.46-.51-6.53.45-9.91.18-2.88-.22-5.57-.66-8.4-.73-.45-.2-.89-.42-1.34-.63a3,3,0,0,1-3.08-.39c-7.78.33-16.3-1.46-24.4-2.08-1.52.94-3.53.47-4.35,3.39,1,.57.89,1.54,1.69,2.17,2.75.47,5.63,1.3,8.18,1.17,3.69-2.13,8.71-.49,13.35.09,4.69-.29,10.36-.64,15.46,1.92,1.45-.83,2.71.37,4.3.69,2.82.54,5.66-.55,8.37-.37a1.37,1.37,0,0,1,.36,0C199.48,349.43,200.05,347.82,200.55,346.12Zm1.63-6.65a1.84,1.84,0,0,0-.23.25,3.93,3.93,0,0,0,0,.7C202.05,340.11,202.12,339.79,202.18,339.47Z"/><path class="cls-1" d="M930.58,369.36c-.3,0-.59.3-.9.31s-.6-.29-.61-.9c-2.11.33-2.71.64-2.7,1.24a6,6,0,0,0,.94,2.4C930,371.77,930.62,372.37,930.58,369.36Z"/><path class="cls-1" d="M946.65,355.3c0,1.5.36,4.51,1.87,4.49a1.69,1.69,0,0,0,1.78-1.53C950.26,355.25,948.16,355.88,946.65,355.3Z"/><path class="cls-1" d="M896.5,375.24c0,1.85-1.87-.91-1.81,3.74.93,0,1.4.44,2.33.43,1.85,0,3.23-1.43,4.16-1.44C899.76,376.12,899.29,375.2,896.5,375.24Z"/><path class="cls-1" d="M166.43,336s-.05,0-.05-.06-.08.06-.12.06Z"/><path class="cls-1" d="M938.3,406.5c-.31.49-.63.65-.63.82s.33.15,1,.15A2.46,2.46,0,0,0,938.3,406.5Z"/><path class="cls-1" d="M132.68,342.81l-.06-.05-.11.05Z"/><path class="cls-1" d="M938.05,466.11c-6,4.62,4.46,13.51,6.49,4.19C943.63,468.29,941.58,466.83,938.05,466.11Z"/><path class="cls-1" d="M158.72,370.49c-.69.71-.92.94-1.85.95,0,.47.24.47.47.47a6.66,6.66,0,0,0,2.54-1.2C159.88,370.48,159.64,370.48,158.72,370.49Z"/><path class="cls-1" d="M958.14,358.77c0,1.2-1.5.61-1.49,1.82,0,.9.32,1.8,2.13,1.78s2.71,0,2.69-2.14a1.15,1.15,0,0,0-.32-.91C960.24,358.74,959.94,358.74,958.14,358.77Z"/><path class="cls-1" d="M191.5,317.54c-2-1.52-4.35-2.78-5.34,1.15C188.64,319.73,191,320.46,191.5,317.54Z"/><path class="cls-1" d="M958.47,318.65c1.47,4.3,11.44,3.06,13.34-1.41C965.28,313.49,962.92,318.18,958.47,318.65Z"/><path class="cls-1" d="M202.82,404.06c0-.24-.24-.23-.94-.22.25.46,0,.46.47.69C202.35,404.29,202.82,404.06,202.82,404.06Z"/><path class="cls-1" d="M201.45,406.4c-.24-.69,0-.47-.48-.92a.81.81,0,0,1-.22.46C200.76,406.64,200.76,406.41,201.45,406.4Z"/><path class="cls-1" d="M203.25,402c0,.22-.22.46-.22.69s.23.23.7.23C203.48,402.19,203.73,402.42,203.25,402Z"/><path class="cls-1" d="M175.5,357.27c-1.15.47-1.39.47-1.37,1.87C175.52,358.66,175.52,358.66,175.5,357.27Z"/><path class="cls-1" d="M205.08,399.61h-.46a6.23,6.23,0,0,0-.68,1.87c0,.23,0,.23.24.23C204.65,401.72,205.09,400.32,205.08,399.61Z"/><path class="cls-1" d="M959.16,419.87c0,.16,0,.32-.15.32s-.32-.16-.64-.15c-.64,0-.64.64-1.27,1a1.86,1.86,0,0,0,1.62,1.27A2.25,2.25,0,0,0,960.3,421C960.29,420.49,959.81,420.18,959.16,419.87Z"/><path class="cls-1" d="M173.54,414.29c-.48,0-.64.17-.79.82,0,.31.16.16.17.63,1,0,1.44-.18,1.43-.65S174.34,414.28,173.54,414.29Z"/><path class="cls-1" d="M154.39,341.05c0,1.86.25,1.86,2.11,1.83C156.48,341,156,341,154.39,341.05Z"/><path class="cls-1" d="M186.88,411c-.22.93-.21,1.62-.43,2.33h.93a3.27,3.27,0,0,1,.44-1.4C187.13,411.93,187.35,411.46,186.88,411Z"/><path class="cls-1" d="M919.87,425.18a31,31,0,0,1-3.6.95c.65,3.6,2.77,4.48,5.78,4.44,1.81,0,2.7-.65,2.68-1.85C924.7,426.32,922,425.15,919.87,425.18Z"/><path class="cls-1" d="M925,414.18l-.9,2.65c1.08.21,1.51.73,1.47,1.5C930,418.68,929.31,413.23,925,414.18Z"/><path class="cls-1" d="M886.62,574.45c-2.12.15-4.22.34-6.29.63.8,1.22,1.77,2.24,2.86,3.62C886.26,577.77,886.71,576.15,886.62,574.45ZM747.53,446.8a9.81,9.81,0,0,0-2.25-3.74l.18-.14c-.09-3.4-2.49-6.18-4.61-9.05a18.75,18.75,0,0,1-.49-2.18c-.77.22-.92-1-1.83-1.63a8.61,8.61,0,0,1-.16-2c-1.84,3.08-3.54,6.29-5.12,9.54,1.83.44,3.39.47,3.57.55h0a13.1,13.1,0,0,0,2,4.68l-.36.12c-.35.1-.12.22-.07.4,0,0-1.55.65-1.91.77,1.16,3.82-1.89,3.42-1,6.2,1.53,5,6.09,2.7,7.58,4.35a10.78,10.78,0,0,0,4.19-3.57A4.94,4.94,0,0,0,747.53,446.8ZM931.1,472.45c-2-6.61-4.42-9-6.55-10.62-2-1.53-3.68-2.47-4.64-5.59-3,.93-9.16-10.76-10.85-10.26-5.13-8.4-10-6.22-11-8.4-7.85-.47-7-3.91-11.54-5.4,0,0,0,0,0,0A31.73,31.73,0,0,1,883,434.5c5.6,6.83,12.17,6.48,17.87,17.2,4.48,8.61,8.63,10.2,8.93,11.18.81,2.72,3.62,3.59,5,5.3a3.52,3.52,0,0,1,.64,1.17c.61,2,.53,4.14,1.13,6.09,2.31,3.92,7,5,11.74,3.55a3.08,3.08,0,0,0,2.53-2.55C931,474.59,931.7,474.4,931.1,472.45Z"/><path class="cls-1" d="M653.56,340.18c.68-2.08,4.79-2.84,4.55-5.27-3.15.55-4.42,6.79-8.05,4.67-.74.44-.71.68-1.82.52-4.22,3-7.72,6.17-9.5,9.16a11.56,11.56,0,0,0,4.65-2.4c1.19,1.42,3.08,1,4.7,1.34-1.12,1.44-4.58,1.4-4.4,3.69,3-.35,6.38-1.62,9.74-2.82.22,1-1.35.87-1.5,1.95,1.23,1.34,2.78-.29,4.07-.52,4.58,1.33,9.21-.38,13.94-.6,4.57,2.23,8.84-3.45,13.48-4.07a4.36,4.36,0,0,1,3.6-1.6c-.59,1.24-2.44,1.21-2.93,2.6,9.88-5.64,20.06-2.66,29.82-7,3.18-.44,7.9,1,9.72-2.82-.09-1-.71-1.08-1.14-2.08-3.31-.77-6.65,1.78-10,2.28-3.48-.56-7.06,1.66-10.66.23.55-1.56,5.09-1.6,4.93-3.92-4.1-.1-9.9,7.73-14.4,6.84-3.89.58-14.83,2.16-17.42-.43C668.38,339.94,659.68,343.67,653.56,340.18ZM671.48,349a20.54,20.54,0,0,1,9.41-3.54C678.63,346.66,674.14,349.6,671.48,349Zm-17.17-4.21c-.93.49-2.4.77-2,1.77.69.13,1.46.07,2,.62-3.13,1.45-6.94-.43-9.39-.78C648.1,344.5,651.2,343.3,654.31,344.78Zm8.5,12.64c.56-.05,1.14-.1,1.72-.17l.16-.66c.69.27.16-.58.19-.75-.67,0-1,.43-1.47.9C663.05,356.64,663,357.13,662.81,357.42Z"/></svg>